<mxfile host="app.diagrams.net" agent="Mozilla/5.0 (Windows NT 10.0; Win64; x64) AppleWebKit/537.36 (KHTML, like Gecko) Chrome/118.0.0.0 Safari/537.36" version="24.7.16">
  <diagram name="Page-1" id="2rgCTR_DpJFMc1sohSk6">
    <mxGraphModel dx="1434" dy="782" grid="1" gridSize="10" guides="1" tooltips="1" connect="1" arrows="1" fold="1" page="1" pageScale="1" pageWidth="827" pageHeight="1169" math="0" shadow="0">
      <root>
        <mxCell id="0" />
        <mxCell id="1" parent="0" />
        <mxCell id="zDXE29svOqthmPus57YP-1" value="" style="edgeStyle=orthogonalEdgeStyle;rounded=0;orthogonalLoop=1;jettySize=auto;html=1;" edge="1" parent="1" source="zDXE29svOqthmPus57YP-2" target="zDXE29svOqthmPus57YP-10">
          <mxGeometry relative="1" as="geometry" />
        </mxCell>
        <mxCell id="zDXE29svOqthmPus57YP-2" value="輸入查詢條件" style="rounded=1;whiteSpace=wrap;html=1;fontSize=12;glass=0;strokeWidth=1;shadow=0;" vertex="1" parent="1">
          <mxGeometry x="160" y="80" width="120" height="40" as="geometry" />
        </mxCell>
        <mxCell id="zDXE29svOqthmPus57YP-3" value="如果未找到會員資料" style="edgeStyle=orthogonalEdgeStyle;rounded=0;html=1;jettySize=auto;orthogonalLoop=1;fontSize=11;endArrow=block;endFill=0;endSize=8;strokeWidth=1;shadow=0;labelBackgroundColor=none;" edge="1" parent="1" source="zDXE29svOqthmPus57YP-4" target="zDXE29svOqthmPus57YP-6">
          <mxGeometry y="10" relative="1" as="geometry">
            <mxPoint as="offset" />
          </mxGeometry>
        </mxCell>
        <mxCell id="zDXE29svOqthmPus57YP-4" value="顯示查詢結果" style="rhombus;whiteSpace=wrap;html=1;shadow=0;fontFamily=Helvetica;fontSize=12;align=center;strokeWidth=1;spacing=6;spacingTop=-4;" vertex="1" parent="1">
          <mxGeometry x="170" y="340" width="100" height="80" as="geometry" />
        </mxCell>
        <mxCell id="zDXE29svOqthmPus57YP-5" style="edgeStyle=orthogonalEdgeStyle;rounded=0;orthogonalLoop=1;jettySize=auto;html=1;exitX=0.5;exitY=0;exitDx=0;exitDy=0;entryX=1;entryY=0.5;entryDx=0;entryDy=0;" edge="1" parent="1" source="zDXE29svOqthmPus57YP-6" target="zDXE29svOqthmPus57YP-2">
          <mxGeometry relative="1" as="geometry" />
        </mxCell>
        <mxCell id="zDXE29svOqthmPus57YP-6" value="提示未找到相關資料" style="rounded=1;whiteSpace=wrap;html=1;fontSize=12;glass=0;strokeWidth=1;shadow=0;" vertex="1" parent="1">
          <mxGeometry x="420" y="360" width="120" height="40" as="geometry" />
        </mxCell>
        <mxCell id="zDXE29svOqthmPus57YP-7" value="顯示會員車輛信息" style="rounded=1;whiteSpace=wrap;html=1;fontSize=12;glass=0;strokeWidth=1;shadow=0;" vertex="1" parent="1">
          <mxGeometry x="160" y="490" width="120" height="40" as="geometry" />
        </mxCell>
        <mxCell id="zDXE29svOqthmPus57YP-8" value="會員資料查詢流程圖" style="text;html=1;align=center;verticalAlign=middle;resizable=0;points=[];autosize=1;strokeColor=none;fillColor=none;" vertex="1" parent="1">
          <mxGeometry x="155" y="30" width="130" height="30" as="geometry" />
        </mxCell>
        <mxCell id="zDXE29svOqthmPus57YP-9" value="" style="edgeStyle=orthogonalEdgeStyle;rounded=0;orthogonalLoop=1;jettySize=auto;html=1;" edge="1" parent="1" source="zDXE29svOqthmPus57YP-10" target="zDXE29svOqthmPus57YP-12">
          <mxGeometry relative="1" as="geometry" />
        </mxCell>
        <mxCell id="zDXE29svOqthmPus57YP-10" value="發送查詢請求至資料庫" style="rounded=1;whiteSpace=wrap;html=1;fontSize=12;glass=0;strokeWidth=1;shadow=0;" vertex="1" parent="1">
          <mxGeometry x="155" y="160" width="130" height="40" as="geometry" />
        </mxCell>
        <mxCell id="zDXE29svOqthmPus57YP-11" value="" style="edgeStyle=orthogonalEdgeStyle;rounded=0;orthogonalLoop=1;jettySize=auto;html=1;" edge="1" parent="1" source="zDXE29svOqthmPus57YP-12" target="zDXE29svOqthmPus57YP-4">
          <mxGeometry relative="1" as="geometry" />
        </mxCell>
        <mxCell id="zDXE29svOqthmPus57YP-12" value="從資料庫獲取查詢結果" style="rounded=1;whiteSpace=wrap;html=1;fontSize=12;glass=0;strokeWidth=1;shadow=0;" vertex="1" parent="1">
          <mxGeometry x="155" y="250" width="130" height="40" as="geometry" />
        </mxCell>
        <mxCell id="zDXE29svOqthmPus57YP-13" value="如果&lt;span style=&quot;background-color: initial;&quot;&gt;找到會員資料&lt;/span&gt;" style="edgeStyle=orthogonalEdgeStyle;rounded=0;html=1;jettySize=auto;orthogonalLoop=1;fontSize=11;endArrow=block;endFill=0;endSize=8;strokeWidth=1;shadow=0;labelBackgroundColor=none;exitX=0.5;exitY=1;exitDx=0;exitDy=0;entryX=0.5;entryY=0;entryDx=0;entryDy=0;" edge="1" parent="1" source="zDXE29svOqthmPus57YP-4" target="zDXE29svOqthmPus57YP-7">
          <mxGeometry x="-0.1429" y="70" relative="1" as="geometry">
            <mxPoint as="offset" />
            <mxPoint x="280" y="390" as="sourcePoint" />
            <mxPoint x="430" y="390" as="targetPoint" />
          </mxGeometry>
        </mxCell>
      </root>
    </mxGraphModel>
  </diagram>
</mxfile>
